# xmcd
#
# Track frame offsets:
#	150
#	10049
#	26074
#	37085
#	47859
#	62543
#	79588
#	93208
#	107757
#	119594
#	133311
#	150768
#
# Disc length: 2180 seconds
#
# Revision: 1
# Processed by: cddbd v1.4PL0 Copyright (c) Steve Scherf et al.
# Submitted via: audiograbber 1.82.01
#
DISCID=9208820c
DTITLE=Joy Adams - Just A Matter Of Time
DYEAR=1999
DGENRE=Country
TTITLE0=I Don't Care
TTITLE1=If You could See Me Now
TTITLE2=Joy's Yodel
TTITLE3=I'll Never Cheat On You
TTITLE4=It Is No Secret
TTITLE5=California
TTITLE6=I'd Be Lying If I Told You
TTITLE7=Keep On Singing
TTITLE8=I Overlooked And Orchid
TTITLE9=Just A Matter Of Time
TTITLE10=Best Mum In The World
TTITLE11=Sweetheart
EXTD=
EXTT0=
EXTT1=
EXTT2=
EXTT3=
EXTT4=
EXTT5=
EXTT6=
EXTT7=
EXTT8=
EXTT9=
EXTT10=
EXTT11=
PLAYORDER=
